#!OML:ASF X:\für Bonn\!DataBase\2005_08_11_Bastian_Final\c3d\Bastian.ASF
:FULLY-SPECIFIED
:DEGREES
285
root 1.60055 3.12281 24.9019 -787.599 -180.448 -727.69
lowerback 71.6173 -3.8296 -20.6957
upperback 19.9621 -1.67014 -5.53499
thorax 3.30702 6.03758 2.79806
lowerneck -15.7441 -0.107991 0.556361
upperneck -0.13961 0.359993 -4.37753
head 2.7301 0.168702 -1.50783
rclavicle -1.64991e-014 -4.05521e-014
rhumerus -36.9327 14.118 -94.132
rradius 38.2439
rwrist -40.5624
rhand -36.7653 -16.1662
rfingers 7.12502
rthumb -9.84822 -45.9159
lclavicle -1.64991e-014 -4.05521e-014
lhumerus 20.1494 -23.5566 14.1253
lradius 60.047
lwrist 15.4244
lhand -4.46961 -17.3279
lfingers 7.12502
lthumb 21.3029 11.5212
rfemur -62.3395 -4.42009 28.6816
rtibia 89.1825
rfoot 9.44282 -4.53376
rtoes -1.68984
lfemur -63.9083 46.7799 -2.7238
ltibia 147.497
lfoot -9.0748 -31.2747
ltoes -23.1495
286
root 1.6069 3.05972 24.878 -787.961 -180.168 -727.73
lowerback 71.6581 -3.72034 -20.876
upperback 19.9119 -1.65566 -5.64758
thorax 3.28052 6.08224 2.72439
lowerneck -15.7323 -0.173351 0.562233
upperneck -0.0860685 0.264585 -4.2931
head 2.74303 0.121851 -1.48811
rclavicle 6.67916e-014 -4.13472e-014
rhumerus -37.8545 14.3231 -94.4538
rradius 39.0348
rwrist -40.8387
rhand -36.8469 -16.3325
rfingers 7.12502
rthumb -9.92696 -46.0784
lclavicle 6.67916e-014 -4.13472e-014
lhumerus 19.8574 -23.7438 14.1662
lradius 60.1206
lwrist 15.5386
lhand -4.30592 -17.3033
lfingers 7.12502
lthumb 21.4602 11.528
rfemur -62.1533 -4.30982 28.3565
rtibia 88.9377
rfoot 9.46748 -4.68106
rtoes -1.08788
lfemur -64.2121 47.1823 -2.8956
ltibia 147.787
lfoot -8.77605 -31.4081
ltoes -23.5275
287
root 1.61283 2.99823 24.8535 -788.333 -179.944 -727.742
lowerback 71.7117 -3.64374 -21.0087
upperback 19.8842 -1.62808 -5.77851
thorax 3.27167 6.14578 2.61038
lowerneck -15.8136 -0.235048 0.580789
upperneck 0.0167408 0.173154 -4.19166
head 2.79056 0.0761393 -1.46603
rclavicle 5.76476e-015 4.33351e-014
rhumerus -38.7703 14.5286 -94.7924
rradius 39.8887
rwrist -41.0873
rhand -36.9379 -16.5618
rfingers 7.12502
rthumb -10.0147 -46.3035
lclavicle 5.76476e-015 4.33351e-014
lhumerus 19.6265 -23.8973 14.1595
lradius 60.1515
lwrist 15.6109
lhand -4.17514 -17.3137
lfingers 7.12502
lthumb 21.5858 11.5033
rfemur -61.9446 -4.21354 28.1099
rtibia 88.7367
rfoot 9.45186 -4.81446
rtoes -0.379427
lfemur -64.4579 47.7074 -2.93713
ltibia 148.092
lfoot -8.59775 -31.5555
ltoes -24.1046
288
root 1.61922 2.93887 24.8273 -788.718 -179.688 -727.754
lowerback 71.79 -3.54242 -21.1727
upperback 19.8514 -1.5884 -5.88993
thorax 3.26489 6.21433 2.52386
lowerneck -15.851 -0.30916 0.581354
upperneck 0.0703055 0.0680771 -4.08713
head 2.81247 0.0257077 -1.43982
rclavicle -7.65321e-015 -8.54774e-015
rhumerus -39.6801 14.7197 -95.1186
rradius 40.7216
rwrist -41.3636
rhand -36.9962 -16.716
rfingers 7.12502
rthumb -10.071 -46.455
lclavicle -7.65321e-015 -8.54774e-015
lhumerus 19.4034 -24.0844 14.1509
lradius 60.2014
lwrist 15.7145
lhand -4.02242 -17.2796
lfingers 7.12502
lthumb 21.7324 11.5204
rfemur -61.7276 -4.11732 27.8146
rtibia 88.5958
rfoot 9.39273 -4.96071
rtoes 0.515642
lfemur -64.6497 48.2285 -2.96753
ltibia 148.388
lfoot -8.367 -31.7206
ltoes -24.258
289
root 1.62536 2.88075 24.8005 -789.078 -179.421 -727.755
lowerback 71.8524 -3.45719 -21.3338
upperback 19.8287 -1.55878 -6.00037
thorax 3.26882 6.27716 2.44315
lowerneck -15.9404 -0.375774 0.607416
upperneck 0.153961 -0.0301191 -3.99298
head 2.85509 -0.0224484 -1.42203
rclavicle -7.8023e-014 2.18663e-014
rhumerus -40.5916 14.9379 -95.4412
rradius 41.6037
rwrist -41.7018
rhand -37.1226 -16.8857
rfingers 7.12502
rthumb -10.1929 -46.6188
lclavicle -7.8023e-014 2.18663e-014
lhumerus 19.2013 -24.2653 14.1135
lradius 60.2249
lwrist 15.7917
lhand -3.95524 -17.2903
lfingers 7.12502
lthumb 21.7969 11.5022
rfemur -61.5675 -4.0492 27.5277
rtibia 88.5292
rfoot 9.3316 -5.03209
rtoes 1.28677
lfemur -64.931 48.6941 -3.10968
ltibia 148.695
lfoot -8.29682 -31.8098
ltoes -24.8957
290
root 1.63121 2.82308 24.775 -789.474 -179.144 -727.752
lowerback 71.9604 -3.36209 -21.519
upperback 19.8076 -1.52436 -6.10605
thorax 3.28246 6.34855 2.37278
lowerneck -16.025 -0.438782 0.585747
upperneck 0.224872 -0.116492 -3.86424
head 2.89244 -0.0629067 -1.38307
rclavicle -2.6339e-014 -2.10712e-014
rhumerus -41.4456 15.0725 -95.7231
rradius 42.4171
rwrist -41.9008
rhand -37.1373 -17.0472
rfingers 7.12502
rthumb -10.2071 -46.7795
lclavicle -2.6339e-014 -2.10712e-014
lhumerus 19.0224 -24.4432 14.091
lradius 60.2145
lwrist 15.8692
lhand -3.88153 -17.2823
lfingers 7.12502
lthumb 21.8677 11.502
rfemur -61.3895 -3.98666 27.225
rtibia 88.5415
rfoot 9.31825 -5.10398
rtoes 2.13141
lfemur -65.1235 49.1405 -3.22982
ltibia 148.983
lfoot -8.19905 -31.8535
ltoes -25.3769
291
root 1.63774 2.76645 24.7483 -789.833 -178.874 -727.751
lowerback 72.0505 -3.23467 -21.7275
upperback 19.7752 -1.48583 -6.17189
thorax 3.28784 6.40405 2.35332
lowerneck -16.0627 -0.499736 0.528489
upperneck 0.267553 -0.19325 -3.75025
head 2.91155 -0.0982292 -1.3412
rclavicle -2.98177e-016 -1.92821e-014
rhumerus -42.3423 15.2775 -95.975
rradius 43.307
rwrist -42.2023
rhand -37.2094 -17.216
rfingers 7.12502
rthumb -10.2766 -46.945
lclavicle -2.98177e-016 -1.92821e-014
lhumerus 18.8022 -24.591 14.157
lradius 60.1507
lwrist 15.9169
lhand -3.75146 -17.311
lfingers 7.12502
lthumb 21.9926 11.4587
rfemur -61.2807 -3.92922 26.9423
rtibia 88.6292
rfoot 9.37024 -5.17395
rtoes 3.20831
lfemur -65.3678 49.6031 -3.37132
ltibia 149.275
lfoot -8.09568 -31.9265
ltoes -25.7737
292
root 1.64333 2.70904 24.7214 -790.173 -178.614 -727.73
lowerback 72.1342 -3.1613 -21.8669
upperback 19.7516 -1.45044 -6.27212
thorax 3.28897 6.47361 2.27229
lowerneck -16.1497 -0.57472 0.515886
upperneck 0.344993 -0.297614 -3.62029
head 2.95165 -0.147522 -1.30503
rclavicle 6.67916e-014 2.50469e-014
rhumerus -43.2049 15.325 -96.2413
rradius 44.1786
rwrist -42.3755
rhand -37.2362 -17.372
rfingers 7.12502
rthumb -10.3025 -47.0997
lclavicle 6.67916e-014 2.50469e-014
lhumerus 18.6876 -24.7713 14.1086
lradius 60.0951
lwrist 15.9855
lhand -3.69379 -17.3139
lfingers 7.12502
lthumb 22.048 11.4493
rfemur -61.2117 -3.88806 26.687
rtibia 88.77
rfoot 9.47123 -5.18879
rtoes 3.96057
lfemur -65.7174 50.0502 -3.57638
ltibia 149.587
lfoot -8.0033 -31.9598
ltoes -26.337
293
root 1.64833 2.65258 24.693 -790.512 -178.314 -727.708
lowerback 72.2219 -3.06961 -22.0519
upperback 19.7327 -1.41989 -6.34095
thorax 3.30587 6.53255 2.24577
lowerneck -16.2498 -0.638153 0.462241
upperneck 0.423733 -0.376762 -3.50567
head 2.99554 -0.184638 -1.26489
rclavicle 6.94752e-014 3.67752e-014
rhumerus -44.0429 15.4255 -96.4484
rradius 45.0415
rwrist -42.6019
rhand -37.2139 -17.5165
rfingers 7.12502
rthumb -10.281 -47.2453
lclavicle 6.94752e-014 3.67752e-014
lhumerus 18.5519 -24.9195 14.107
lradius 60.0173
lwrist 16.0196
lhand -3.59955 -17.3428
lfingers 7.12502
lthumb 22.1385 11.4097
rfemur -61.1507 -3.86176 26.375
rtibia 88.9642
rfoot 9.57348 -5.12585
rtoes 4.29681
lfemur -66.0622 50.3962 -3.86999
ltibia 149.891
lfoot -7.93417 -31.9436
ltoes -26.831
294
root 1.65346 2.5967 24.6624 -790.791 -178.062 -727.691
lowerback 72.203 -3.02519 -22.1672
upperback 19.7411 -1.39151 -6.44155
thorax 3.33344 6.58783 2.16894
lowerneck -16.3168 -0.721968 0.396386
upperneck 0.48979 -0.484326 -3.35424
head 3.02821 -0.234211 -1.21201
rclavicle -3.70236e-014 -1.75924e-014
rhumerus -44.8931 15.4636 -96.6817
rradius 45.9281
rwrist -42.7895
rhand -37.1838 -17.658
rfingers 7.12502
rthumb -10.2519 -47.3882
lclavicle -3.70236e-014 -1.75924e-014
lhumerus 18.4532 -25.0729 14.0631
lradius 59.9047
lwrist 16.0728
lhand -3.56505 -17.3448
lfingers 7.12502
lthumb 22.1716 11.4037
rfemur -61.1806 -3.80701 26.139
rtibia 89.2166
rfoot 9.64724 -4.99549
rtoes 3.90378
lfemur -66.5627 50.894 -4.18116
ltibia 150.234
lfoot -7.90067 -31.9445
ltoes -27.4524
295
root 1.6596 2.54171 24.6324 -791.061 -177.786 -727.682
lowerback 72.1705 -2.95787 -22.3184
upperback 19.7651 -1.34468 -6.52283
thorax 3.38603 6.64734 2.12464
lowerneck -16.3968 -0.790488 0.343195
upperneck 0.525024 -0.571688 -3.21205
head 3.05332 -0.272648 -1.16278
rclavicle -1.0133e-013 -3.35946e-014
rhumerus -45.6977 15.4886 -96.8889
rradius 46.8051
rwrist -42.981
rhand -37.1824 -17.7873
rfingers 7.12502
rthumb -10.2506 -47.5176
lclavicle -1.0133e-013 -3.35946e-014
lhumerus 18.4041 -25.196 14.0092
lradius 59.7717
lwrist 16.1489
lhand -3.47707 -17.3125
lfingers 7.12502
lthumb 22.256 11.426
rfemur -61.2426 -3.77754 25.8936
rtibia 89.5477
rfoot 9.70271 -4.80983
rtoes 3.29931
lfemur -67.0273 51.3802 -4.49469
ltibia 150.563
lfoot -7.87372 -31.9491
ltoes -27.9754
